inDegrees=no
num_controls=7
num_derivatives=13
num_iterations=295
num_multipliers=7
num_parameters=0
num_slacks=7
num_states=26
objective=0.454676
objective_accelerations=0.000000
objective_balance=0.003375
objective_effort=0.035872
objective_height=0.316744
objective_ligament=0.098686
solver_duration=4329.174259
status=Solve_Succeeded
success=true
DataType=double
version=3
OpenSimVersion=4.5
endheader
time	/jointset/ground_pelvis/pelvis_tilt/value	/jointset/ground_pelvis/pelvis_tx/value	/jointset/ground_pelvis/pelvis_ty/value	/jointset/hip_l/hip_flexion_l/value	/jointset/hip_l/hip_adduction_l/value	/jointset/hip_l/hip_rotation_l/value	/jointset/back/lumbar_extension/value	/jointset/patellofemoral_l/patellar_flexion_l/value	/jointset/knee_l/knee_flexion_l/value	/jointset/knee_l/knee_adduction_l/value	/jointset/knee_l/knee_rotation_l/value	/jointset/ankle_l/ankle_angle_l/value	/jointset/subtalar_l/subtalar_angle_l/value	/jointset/ground_pelvis/pelvis_tilt/speed	/jointset/ground_pelvis/pelvis_tx/speed	/jointset/ground_pelvis/pelvis_ty/speed	/jointset/hip_l/hip_flexion_l/speed	/jointset/hip_l/hip_adduction_l/speed	/jointset/hip_l/hip_rotation_l/speed	/jointset/back/lumbar_extension/speed	/jointset/patellofemoral_l/patellar_flexion_l/speed	/jointset/knee_l/knee_flexion_l/speed	/jointset/knee_l/knee_adduction_l/speed	/jointset/knee_l/knee_rotation_l/speed	/jointset/ankle_l/ankle_angle_l/speed	/jointset/subtalar_l/subtalar_angle_l/speed	/forceset/tau_hip_flexion_l	/forceset/tau_hip_adduction_l	/forceset/tau_hip_rotation_l	/forceset/tau_knee_flexion_l	/forceset/tau_ankle_angle_l	/forceset/tau_subtalar_angle_l	/forceset/tau_lumbar_extension	lambda_cid13_p0	lambda_cid13_p1	lambda_cid13_p2	lambda_cid13_p3	lambda_cid13_p4	lambda_cid13_p5	lambda_cid14_p0	/jointset/ground_pelvis/pelvis_tilt/accel	/jointset/ground_pelvis/pelvis_tx/accel	/jointset/ground_pelvis/pelvis_ty/accel	/jointset/hip_l/hip_flexion_l/accel	/jointset/hip_l/hip_adduction_l/accel	/jointset/hip_l/hip_rotation_l/accel	/jointset/back/lumbar_extension/accel	/jointset/patellofemoral_l/patellar_flexion_l/accel	/jointset/knee_l/knee_flexion_l/accel	/jointset/knee_l/knee_adduction_l/accel	/jointset/knee_l/knee_rotation_l/accel	/jointset/ankle_l/ankle_angle_l/accel	/jointset/subtalar_l/subtalar_angle_l/accel	gamma_cid13_p0	gamma_cid13_p1	gamma_cid13_p2	gamma_cid13_p3	gamma_cid13_p4	gamma_cid13_p5	gamma_cid14_p0
1	-0.2896892654560205	-0.06823174157736119	0.8207923192562765	1.017343231842383	-0.3010275351014945	-0.1812110722258356	-0.9597741625475025	0.6590602957636006	0.6590602957636871	-0.07841978673491561	-0.1740164286752529	-0.01738373827689097	-0.01230867561230886	0.01471030549651618	-0.0003332999319777398	0.0006482626345657183	-0.01245654968996162	-0.004969162246495004	0.003073337429465768	0.004659744836105721	0.006680012025965801	0.006680012025966559	-0.008664071714654708	-0.003015519167650241	0.00257978258884338	-0.004242267935922845	-0.4359898483907539	0.0625295896147455	-0.002799509718607217	-0.01164401618148574	-0.03609395056016898	0.09341577894349576	0.4190716894976178	-55.08292465942498	-32.17848288074097	6.106628936220511	16.44486898341154	-715.007672836983	-80.36678852540138	-19.3423678159001	0.9995546393969488	-0.08997433516375229	0.05770688296432006	-0.8252356955930015	-0.1073585737401249	0.3228548456869234	0.1627106440647315	0.2631893014646316	0.2631893014646417	-0.2773797326555936	0.1281401131559126	0.0621094141802743	-0.09288419498796106	-1.07698441988876e-10	-2.214374950824695e-09	2.999075761990277e-09	-1.606801758160621e-09	6.312164505663441e-10	-5.228958902758294e-10	-7.727756683917018e-10
1.01	-0.2894915519551216	-0.06823971869761566	0.820802153282244	1.017175234697832	-0.3010819948605247	-0.1811679496105855	-0.9597221984804422	0.659137603268629	0.6591376032686899	-0.07851816268056844	-0.1740423198372377	-0.01735595143195068	-0.01235545684262327	0.02492219866690953	-0.001274768540879023	0.001368384788507938	-0.02138965883768325	-0.005867142523803308	0.005154554188015729	0.005428939984442794	0.008522014634034509	0.008522014634034474	-0.01079294290806652	-0.00239981334039435	0.002872965901281099	-0.005087176311674948	-0.4339543569494817	0.06212631231420618	-0.002875711739873834	-0.01362026372425347	-0.03453373207669572	0.09297142219234066	0.4171155107004104	-54.61730113478304	-32.05956296586155	6.07914515491821	16.69962242198135	-714.9082241878585	-80.38760729633114	-19.34056946656371	1.045476368449	-0.09813013284278577	0.08664125495414633	-0.9643663211434869	-0.0726713998842118	0.09125962013408133	-0.01159533886512338	0.1057850491160767	0.1057850491159342	-0.1479142189444284	-0.007278052769140226	-0.002770665869680988	-0.07627459050415758	-3.009998088484367e-09	1.309271320583967e-10	6.193715623577232e-09	-1.726775812154789e-09	1.991093045493304e-10	7.183522872025148e-10	-2.287428632115225e-09
1.02	-0.2891890255799995	-0.06825748990577715	0.82082068380442	1.016910502902448	-0.301143765151358	-0.1811159139219142	-0.9596716663197093	0.6592255466614623	0.6592255466615046	-0.07863128201940872	-0.1740691667150047	-0.01732837144499823	-0.01240988324302204	0.03567288034084184	-0.002292117513380528	0.002387561876266045	-0.03180347985667549	-0.006431268607432437	0.004855952114368315	0.004373363569449164	0.008807189587626173	0.008807189587625296	-0.0116127503518949	-0.003206662324320634	0.002538410987909609	-0.005771301952839798	-0.4319188655082125	0.06172303501366302	-0.0029519137611481	-0.01559651126702091	-0.03297351359322249	0.09252706544118176	0.4151593319032011	-54.15227154486293	-31.94049752708578	6.051590849069779	16.95214882443469	-714.8175863275893	-80.40697159945017	-19.33844499518609	1.107312340104766	-0.1051504078838671	0.1175178697274827	-1.121378069847072	-0.04058773500427634	-0.1531089207525729	-0.2022436686015044	-0.04817622943081491	-0.04817622943081468	-0.0155669827388853	-0.1563708490805248	-0.0634382309816823	-0.06072764807053652	-8.864791223484591e-10	6.830549875132687e-10	3.289289851205579e-09	-9.887683102006391e-10	-5.682052953110287e-10	-1.419999142618528e-10	-7.60304442034451e-10
1.03	-0.2887774732058552	-0.06828571163849688	0.8208503100308081	1.016537188264679	-0.3012101988396509	-0.1810714802272945	-0.9596370599912657	0.6593113541447292	0.6593113541447168	-0.07875012495264604	-0.1741061531234545	-0.01730623114838938	-0.0124707964524307	0.04661070291037041	-0.003354635327758388	0.003528906472118999	-0.04281345394581344	-0.00687000566719974	0.004360037844134384	0.002617453800272521	0.008371194734806164	0.008371194734806093	-0.0123467304984911	-0.003926062752537739	0.001887913399034271	-0.006431055855432084	-0.4322218117789032	0.06193603710033651	-0.002869236599284403	-0.01525454058492936	-0.03350815900100677	0.09252168185068783	0.415534162239224	-54.33114456466752	-31.91144342208851	6.052216977628776	17.09947677919596	-714.8850280289737	-80.32338450680544	-19.33663271778836	1.082983648023235	-0.1071634567499668	0.1111259426513669	-1.083907872097259	-0.04769755445979205	0.05155513545913248	-0.1518318792299324	-0.03877813186803294	-0.03877813186792241	-0.1309473662050357	0.009958832718626147	-0.06611545146584333	-0.07155690538238603	1.288323707181674e-09	1.216885146769883e-09	3.226287152220685e-10	-2.42005894410277e-10	-1.338940379394281e-09	-1.023797017552179e-09	7.978582904320977e-10
1.04	-0.2882573493194856	-0.06832463074706749	0.8208910863407822	1.016055153727289	-0.3012814560711399	-0.1810221281122562	-0.9596179262101332	0.6593933082757325	0.659393308275672	-0.07888203445446842	-0.1741423968417043	-0.01729064781336399	-0.01253889872967087	0.05738718278575357	-0.004431592683562038	0.004617578593474863	-0.05354745978095576	-0.007395977246839964	0.00583963619861871	0.001278854104931694	0.008036519135568469	0.00803651913556923	-0.01422606406848798	-0.003058124284317064	0.001227018665143188	-0.007209115519176481	-0.4325247580495979	0.0621490391870064	-0.002786559437433863	-0.01491256990283834	-0.03404280440879137	0.09251629826019035	0.4159089925752442	-54.5113025359674	-31.88197896471966	6.052565931591332	17.24903167596417	-714.9695127099905	-80.23906050183048	-19.33490363807512	1.075043801275688	-0.1080383161690535	0.1069833748280586	-1.066184419047918	-0.05803463897884775	0.2419936041910612	-0.1187816538343881	-0.02791237871437102	-0.02791237871436499	-0.2446376674189968	0.1610969302070283	-0.06551765998487827	-0.08438880030096202	-3.07076301087399e-10	1.477964712271753e-09	1.072623671467453e-09	-9.09866933115199e-10	-1.564630233252779e-09	5.112461415450522e-10	-2.740751248806212e-10
1.05	-0.2876293080951971	-0.06837441577278082	0.8209429119078643	1.01546507592221	-0.3013576149780557	-0.1809523386465463	-0.959612944228838	0.6594706661677273	0.6594706661677233	-0.07903539630635115	-0.1741645891328536	-0.01728218242215486	-0.01261466083392023	0.06829026388682798	-0.005530458621216526	0.005781548730526587	-0.06462994205709978	-0.007767020624286716	0.008010093898346475	-0.0004987584890048951	0.007276151340778166	0.007276151340778424	-0.01631590819904156	-0.001380402827470226	0.0004193269959178848	-0.007887392209491518	-0.4307724320217645	0.06171061759941926	-0.002801066664533698	-0.01674019858589018	-0.03231968753598576	0.09215188827316002	0.4144245938567668	-53.980719221499	-31.80733766116774	6.030066815757851	17.26412678426168	-714.8443046698897	-80.29754356577105	-19.33292996975196	1.108319764573412	-0.1115679883854427	0.1262055625316199	-1.1535570398564	-0.01632182506152049	0.1883473170251965	-0.2396961587757194	-0.1239348708873542	-0.1239348708874444	-0.1715977120518217	0.1710997377114244	-0.09540510620991188	-0.05116059842614272	-2.020295148037676e-09	1.730520821718789e-09	1.938764130594969e-09	-1.621934954773091e-09	-1.773287423666757e-09	2.121815558841881e-09	-1.428199044811427e-09
1.06	-0.2868901601598872	-0.06843534090903514	0.8210073975221945	1.014759317912778	-0.3014354208463323	-0.1808640895110088	-0.95963222739279	0.6595356532035657	0.6595356532036248	-0.07920574458477724	-0.1741700062125786	-0.01728319598476854	-0.01269552840407849	0.07960852498990742	-0.006659614791759254	0.007149588043111049	-0.07668350065159463	-0.007725369519090437	0.009531570164537748	-0.00357417494703433	0.005562347904948296	0.005562347904948015	-0.01762334937672554	0.0002969180008937554	-0.0006687721060491144	-0.008230208700980769	-0.4290201059939345	0.06127219601182926	-0.002815573891648325	-0.01856782726894263	-0.03059657066318034	0.09178747828612698	0.4129401951382869	-53.45165499506911	-31.7322465656732	6.007286060152675	17.28225208810096	-714.7403129678279	-80.35911913241071	-19.33086217460266	1.158079801676674	-0.1140963627466754	0.1477972099346112	-1.26039968271809	0.02450425754976829	0.1121973174837482	-0.3783424266529384	-0.2185995069222774	-0.2185995069222787	-0.08815707684504856	0.1610168045104498	-0.1215991465331748	-0.01729676053578181	-1.050849524685617e-09	1.9037640485425e-09	-1.705652256055765e-09	9.218511269170806e-10	-6.003382729341692e-10	1.74730641857241e-09	-1.588114931865576e-10
1.07	-0.2860397681771302	-0.06850783038226099	0.8210856910760987	1.013934514996042	-0.3015099036542588	-0.1807656076113091	-0.9596823005221399	0.6595811153017295	0.6595811153016063	-0.07938192671946746	-0.1741599049245127	-0.01729587865505134	-0.01277705764701193	0.09013193596521142	-0.007855655238737309	0.008453164505154336	-0.08779867289000409	-0.007020285783082762	0.009938267320584971	-0.006005596881494909	0.003606995278593807	0.003606995278593601	-0.01718327609824664	0.001643580509334124	-0.001855650060830233	-0.007914654206446433	-0.4288390282572192	0.06128576656191078	-0.00282070943682107	-0.01888114869406042	-0.03015710909812585	0.09177095693742625	0.4133945334856088	-53.30699787768406	-31.74829457159117	6.007439936353224	17.15916160525471	-714.6632871166753	-80.43165337214931	-19.32897591765606	0.948782000165427	-0.1249634270524212	0.1132442763461994	-0.9653139728870073	0.1161470511749528	-0.02907453697244258	-0.1103139705411918	-0.1724648754082177	-0.1724648754082272	0.1745596448886474	0.1095259662303084	-0.1154154599319582	0.08012978420526469	6.129101729956332e-11	2.072788505013907e-09	-5.589991879184094e-09	3.638820937508765e-09	6.461005767955856e-10	1.267207993325995e-09	1.239486243095544e-09
